# xmcd CD database file
# Copyright (C) 1995 Ti Kan
#
# Track frame offsets:
#	150
#	17170
#	33597
#	51235
#	68737
#
# Disc length: 1120 seconds
#
# Revision: 1
# Processed by: cddbd v1.4b41PL1 Copyright (c) Steve Scherf et al.
# Submitted via: NotifyCDPlayer(CDDB) 1.05
#
DISCID=3e045e05
DTITLE=Karren Brooks and Randy Sharp - That's Another Story
DYEAR=1900
DGENRE=
TTITLE0=Baby I'm The One
TTITLE1=All I Need
TTITLE2=Last Call For Love
TTITLE3=If You Don't Really Love Her
TTITLE4=That's Another Story
EXTD=
EXTT0=
EXTT1=
EXTT2=
EXTT3=
EXTT4=
PLAYORDER=
